<mxfile host="Electron" modified="2023-09-17T09:30:20.508Z" agent="Mozilla/5.0 (X11; Linux x86_64) AppleWebKit/537.36 (KHTML, like Gecko) draw.io/21.3.7 Chrome/112.0.5615.204 Electron/24.5.0 Safari/537.36" etag="0fJ2DC-cQwgdkrJkuCzY" version="21.3.7" type="device">
  <diagram id="RzHRtOWcKmFFDx0ixeA7" name="Page-1">
    <mxGraphModel dx="373" dy="318" grid="1" gridSize="10" guides="1" tooltips="1" connect="1" arrows="1" fold="1" page="1" pageScale="1" pageWidth="827" pageHeight="1169" math="0" shadow="0">
      <root>
        <mxCell id="0" />
        <mxCell id="1" parent="0" />
        <mxCell id="t_4mQVhPCan0diAg3DWr-1" value="&lt;p style=&quot;line-height: 100%; font-size: 7px;&quot;&gt;&lt;font style=&quot;font-size: 7px;&quot;&gt;Data to search on is &lt;br&gt;(rather) unambiguous, &lt;br&gt;e.g. identification nr.&lt;br style=&quot;font-size: 7px;&quot;&gt;&lt;br style=&quot;font-size: 7px;&quot;&gt;Examples: re-identification&lt;br&gt;at counter, or through automated searching and matching.&lt;/font&gt;&lt;/p&gt;" style="shape=mxgraph.basic.three_corner_round_rect;dx=18;flipH=1;html=1;fillColor=#10739E;strokeColor=none;shadow=0;fontSize=7;fontColor=#FFFFFF;align=center;fontStyle=0;whiteSpace=wrap;rounded=0;fontFamily=Tahoma;labelBackgroundColor=none;spacing=2;verticalAlign=middle;" parent="1" vertex="1">
          <mxGeometry x="325" y="255" width="100" height="100" as="geometry" />
        </mxCell>
        <mxCell id="t_4mQVhPCan0diAg3DWr-2" value="&lt;p style=&quot;line-height: 100%; font-size: 7px;&quot;&gt;Search query input is more ambiguous.&lt;br style=&quot;font-size: 7px;&quot;&gt;&lt;br style=&quot;font-size: 7px;&quot;&gt;Examples: re-identification through phone calls, written documents.&lt;/p&gt;" style="shape=mxgraph.basic.three_corner_round_rect;dx=18;fillColor=#F2931E;strokeColor=none;shadow=0;fontSize=7;fontColor=#FFFFFF;align=center;fontStyle=0;rounded=0;fontFamily=Tahoma;html=1;whiteSpace=wrap;labelBorderColor=none;spacing=2;verticalAlign=middle;" parent="1" vertex="1">
          <mxGeometry x="430" y="255" width="100" height="100" as="geometry" />
        </mxCell>
        <mxCell id="t_4mQVhPCan0diAg3DWr-3" value="&lt;p style=&quot;line-height: 100%; font-size: 7px;&quot;&gt;Input is pre-established, but need for extensive interpretation of results.&lt;br style=&quot;font-size: 7px;&quot;&gt;&lt;br style=&quot;font-size: 7px;&quot;&gt;Examples: re-identification at final stages of application, or&amp;nbsp; through deduplication&lt;/p&gt;" style="shape=mxgraph.basic.three_corner_round_rect;dx=18;flipH=1;flipV=1;html=1;fillColor=#AE4132;strokeColor=none;shadow=0;fontSize=7;fontColor=#FFFFFF;align=center;fontStyle=0;whiteSpace=wrap;rounded=0;fontFamily=Tahoma;spacing=2;verticalAlign=middle;" parent="1" vertex="1">
          <mxGeometry x="325" y="360" width="100" height="100" as="geometry" />
        </mxCell>
        <mxCell id="t_4mQVhPCan0diAg3DWr-4" value="Both input may be ambiguous and results need careful examination.&lt;br style=&quot;font-size: 7px;&quot;&gt;&lt;br style=&quot;font-size: 7px;&quot;&gt;Examples: re-identification&lt;br&gt;at first registration and startup of procedure." style="shape=mxgraph.basic.three_corner_round_rect;dx=18;flipV=1;fillColor=#23445D;shadow=0;fontSize=7;fontColor=#FFFFFF;align=center;fontStyle=0;rounded=0;fontFamily=Tahoma;sketch=0;spacing=1;verticalAlign=middle;whiteSpace=wrap;html=1;" parent="1" vertex="1">
          <mxGeometry x="430" y="360" width="100" height="100" as="geometry" />
        </mxCell>
        <mxCell id="t_4mQVhPCan0diAg3DWr-5" value="&lt;div style=&quot;font-size: 8px;&quot;&gt;&lt;u style=&quot;font-size: 8px;&quot;&gt;Less&lt;/u&gt; need to&lt;/div&gt;&lt;div style=&quot;font-size: 8px;&quot;&gt;interpret results&lt;/div&gt;" style="rounded=1;arcSize=50;html=1;fillColor=#CCCCCC;strokeColor=none;shadow=0;fontSize=8;align=center;fontStyle=1;whiteSpace=wrap;horizontal=0;fontFamily=Futura;" parent="1" vertex="1">
          <mxGeometry x="290" y="265" width="30" height="80" as="geometry" />
        </mxCell>
        <mxCell id="t_4mQVhPCan0diAg3DWr-6" value="&lt;div style=&quot;font-size: 8px;&quot;&gt;&lt;u style=&quot;font-size: 8px;&quot;&gt;More&lt;/u&gt; need to&lt;/div&gt;&lt;div style=&quot;font-size: 8px;&quot;&gt;interpret results&lt;/div&gt;" style="rounded=1;arcSize=50;html=1;fillColor=#CCCCCC;strokeColor=none;shadow=0;fontSize=8;align=center;fontStyle=1;whiteSpace=wrap;horizontal=0;fontFamily=Futura;" parent="1" vertex="1">
          <mxGeometry x="290" y="370" width="30" height="80" as="geometry" />
        </mxCell>
        <mxCell id="t_4mQVhPCan0diAg3DWr-7" value="&lt;u style=&quot;font-size: 8px;&quot;&gt;Less&lt;/u&gt; need to&lt;br style=&quot;font-size: 8px;&quot;&gt;interpret input" style="rounded=1;arcSize=50;html=1;fillColor=#CCCCCC;strokeColor=none;shadow=0;fontSize=8;align=center;fontStyle=1;whiteSpace=wrap;fontFamily=Futura;" parent="1" vertex="1">
          <mxGeometry x="335" y="220" width="80" height="30" as="geometry" />
        </mxCell>
        <mxCell id="t_4mQVhPCan0diAg3DWr-8" value="&lt;u style=&quot;font-size: 8px;&quot;&gt;More&lt;/u&gt; need to&lt;br style=&quot;font-size: 8px;&quot;&gt;interpret input" style="rounded=1;arcSize=50;html=1;fillColor=#CCCCCC;strokeColor=none;shadow=0;fontSize=8;align=center;fontStyle=1;whiteSpace=wrap;fontFamily=Futura;" parent="1" vertex="1">
          <mxGeometry x="440" y="220" width="80" height="30" as="geometry" />
        </mxCell>
        <mxCell id="t_4mQVhPCan0diAg3DWr-14" value="" style="group;fontFamily=Tahoma;fontSize=7;" parent="1" vertex="1" connectable="0">
          <mxGeometry x="530" y="255" width="133.75" height="100" as="geometry" />
        </mxCell>
        <mxCell id="t_4mQVhPCan0diAg3DWr-12" value="" style="shape=curlyBracket;whiteSpace=wrap;html=1;rounded=1;labelBackgroundColor=none;sketch=0;strokeColor=#000000;fillColor=#9AC7BF;fontFamily=Helvetica;fontSize=8;fontColor=#E6E6E6;align=center;direction=west;size=0.5;" parent="t_4mQVhPCan0diAg3DWr-14" vertex="1">
          <mxGeometry width="13.75" height="100" as="geometry" />
        </mxCell>
        <mxCell id="t_4mQVhPCan0diAg3DWr-13" value="&lt;div style=&quot;font-size: 7px&quot;&gt;&lt;span style=&quot;color: rgb(0 , 0 , 0)&quot;&gt;&lt;font style=&quot;font-size: 7px&quot;&gt;Applicant&lt;/font&gt;&lt;/span&gt;&lt;span style=&quot;color: rgb(0, 0, 0); background-color: initial;&quot;&gt;&amp;nbsp;to re-identify often&amp;nbsp;&lt;/span&gt;&lt;/div&gt;&lt;font color=&quot;#000000&quot; style=&quot;font-size: 7px&quot;&gt;&lt;div&gt;already in system.&lt;/div&gt;&lt;div&gt;&lt;br&gt;&lt;/div&gt;&lt;div&gt;Fewer amount of searches,&lt;/div&gt;&lt;div&gt;less need for knowledge&amp;nbsp;&lt;/div&gt;&lt;div&gt;of search features.&lt;/div&gt;&lt;/font&gt;" style="text;html=1;align=left;verticalAlign=middle;resizable=0;points=[];autosize=1;fontSize=8;fontFamily=Tahoma;fontColor=#E6E6E6;" parent="t_4mQVhPCan0diAg3DWr-14" vertex="1">
          <mxGeometry x="13.75" y="20" width="110" height="60" as="geometry" />
        </mxCell>
        <mxCell id="t_4mQVhPCan0diAg3DWr-16" value="" style="group;fontSize=11;fontFamily=Tahoma;" parent="1" vertex="1" connectable="0">
          <mxGeometry x="277.5" y="460" width="300" height="70" as="geometry" />
        </mxCell>
        <mxCell id="t_4mQVhPCan0diAg3DWr-10" value="&lt;font color=&quot;#000000&quot;&gt;&lt;br&gt;&lt;/font&gt;" style="shape=curlyBracket;whiteSpace=wrap;html=1;rounded=1;labelBackgroundColor=none;sketch=0;strokeColor=#000000;fillColor=#9AC7BF;fontFamily=Helvetica;fontSize=8;fontColor=#E6E6E6;align=center;direction=north;" parent="t_4mQVhPCan0diAg3DWr-16" vertex="1">
          <mxGeometry x="47.5" width="205" height="20" as="geometry" />
        </mxCell>
        <mxCell id="t_4mQVhPCan0diAg3DWr-15" value="&lt;font style=&quot;font-size: 7px&quot;&gt;&lt;span style=&quot;color: rgb(0 , 0 , 0)&quot;&gt;More uncertainty if applicant already present in the system.&lt;/span&gt;&lt;br style=&quot;color: rgb(0 , 0 , 0)&quot;&gt;&lt;span style=&quot;color: rgb(0 , 0 , 0)&quot;&gt;Higher number of searches, &lt;br&gt;more need to know the search features and customising search.&lt;/span&gt;&lt;/font&gt;" style="text;html=1;align=center;verticalAlign=middle;resizable=0;points=[];autosize=1;fontSize=8;fontFamily=Tahoma;fontColor=#E6E6E6;" parent="t_4mQVhPCan0diAg3DWr-16" vertex="1">
          <mxGeometry x="50" y="13" width="200" height="40" as="geometry" />
        </mxCell>
      </root>
    </mxGraphModel>
  </diagram>
</mxfile>
